<svg width="38" height="31" viewBox="0 0 38 31" fill="none" xmlns="http://www.w3.org/2000/svg">
<path d="M36.5608 5.43436C37.4062 8.77561 37.4062 15.7506 37.4062 15.7506C37.4062 15.7506 37.4062 22.7256 36.5608 26.0669C36.0909 27.9137 34.7164 29.3669 32.9755 29.8581C29.8139 30.7506 18.9062 30.7506 18.9062 30.7506C18.9062 30.7506 8.0042 30.7506 4.837 29.8581C3.08875 29.3594 1.71605 27.9081 1.2517 26.0669C0.40625 22.7256 0.40625 15.7506 0.40625 15.7506C0.40625 15.7506 0.40625 8.77561 1.2517 5.43436C1.7216 3.58749 3.09615 2.13436 4.837 1.64311C8.0042 0.75061 18.9062 0.75061 18.9062 0.75061C18.9062 0.75061 29.8139 0.75061 32.9755 1.64311C34.7238 2.14186 36.0965 3.59311 36.5608 5.43436ZM15.2063 22.3131L26.3062 15.7506L15.2063 9.18811V22.3131Z" fill="white"/>
</svg>
